<?xml version="1.0" encoding="UTF-8" standalone="no"?><!DOCTYPE svg PUBLIC "-//W3C//DTD SVG 1.1//EN" "http://www.w3.org/Graphics/SVG/1.1/DTD/svg11.dtd"><svg width="100%" height="100%" viewBox="0 0 360 252" version="1.1" xmlns="http://www.w3.org/2000/svg" xmlns:xlink="http://www.w3.org/1999/xlink" xml:space="preserve" xmlns:serif="http://www.serif.com/" style="fill-rule:evenodd;clip-rule:evenodd;stroke-linejoin:round;stroke-miterlimit:1.41421;"><path d="M180,4.542c67.034,0 121.458,54.424 121.458,121.458c0,67.034 -54.424,121.458 -121.458,121.458c-67.034,0 -121.458,-54.424 -121.458,-121.458c0,-67.034 54.424,-121.458 121.458,-121.458Zm0,9.146c61.987,0 112.312,50.325 112.312,112.312c0,61.987 -50.325,112.312 -112.312,112.312c-61.987,0 -112.312,-50.325 -112.312,-112.312c0,-61.987 50.325,-112.312 112.312,-112.312Z" style="fill:#ebebeb;"/><path d="M102.844,217.731c0,-54.84 34.572,-99.362 77.156,-99.362c42.584,0 77.156,44.522 77.156,99.362l-7.304,0c0,-49.648 -31.3,-89.956 -69.852,-89.956c-38.552,0 -69.852,40.308 -69.852,89.956l-7.304,0Z" style="fill:#ebebeb;"/><path d="M180,21.712c26.673,0 48.329,21.655 48.329,48.328c0,26.674 -21.656,48.329 -48.329,48.329c-26.673,0 -48.329,-21.655 -48.329,-48.329c0,-26.673 21.656,-48.328 48.329,-48.328Zm0,6.163c23.272,0 42.166,18.893 42.166,42.165c0,23.273 -18.894,42.166 -42.166,42.166c-23.272,0 -42.166,-18.893 -42.166,-42.166c0,-23.272 18.894,-42.165 42.166,-42.165Z" style="fill:#ebebeb;"/></svg>