<?xml version="1.0" encoding="UTF-8" standalone="no"?><!DOCTYPE svg PUBLIC "-//W3C//DTD SVG 1.1//EN" "http://www.w3.org/Graphics/SVG/1.1/DTD/svg11.dtd"><svg width="100%" height="100%" viewBox="0 0 360 252" version="1.1" xmlns="http://www.w3.org/2000/svg" xmlns:xlink="http://www.w3.org/1999/xlink" xml:space="preserve" xmlns:serif="http://www.serif.com/" style="fill-rule:evenodd;clip-rule:evenodd;stroke-linejoin:round;stroke-miterlimit:1.41421;"><path d="M289.666,234.354l-183.395,0c-9.72,0 -17.612,-7.892 -17.612,-17.612l17.994,-134.888c0,-9.72 10.51,-20.557 20.23,-20.557l143.146,-0.725c9.72,0 21.212,10.837 21.212,20.557l16.036,135.613c0,9.72 -7.891,17.611 -17.611,17.612Zm-5.774,-5.472c9.108,0 16.502,-7.394 16.502,-16.503l-15.026,-127.073c0,-9.108 -10.768,-19.263 -19.876,-19.263l-134.133,0.68c-9.108,0 -18.956,10.154 -18.956,19.263l-16.861,126.393c0,9.109 7.395,16.503 16.503,16.503l171.847,0Z" style="fill:#ebebeb;"/><path d="M153.193,60.572c4.193,-21.623 22.659,-37.93 44.775,-37.93c22.117,0 40.582,16.307 44.776,37.93l-4.274,0c-4.125,-19.216 -20.703,-33.602 -40.502,-33.602c-19.799,0 -36.377,14.386 -40.501,33.602l-4.274,0Z" style="fill:#ebebeb;"/></svg>