<?xml version="1.0" encoding="UTF-8" standalone="no"?>
<!DOCTYPE svg PUBLIC "-//W3C//DTD SVG 1.1//EN" "http://www.w3.org/Graphics/SVG/1.1/DTD/svg11.dtd">
<svg width="100%" height="100%" viewBox="0 0 349 112" version="1.1" xmlns="http://www.w3.org/2000/svg" xmlns:xlink="http://www.w3.org/1999/xlink" xml:space="preserve" xmlns:serif="http://www.serif.com/" style="fill-rule:evenodd;clip-rule:evenodd;stroke-linejoin:round;stroke-miterlimit:1.41421;">
    <path d="M88.3,13.2C87.5,5.2 80.4,-0.7 72.3,0C64.3,0.8 58.4,7.9 59.1,16C59.5,20.5 62,24.3 65.4,26.7C66.7,27.6 67.6,29.2 67.6,30.9C67.6,32 67.3,33 66.7,33.8C64.1,37.7 64.8,39.9 68,39.9C80.6,40 89.5,25.7 88.3,13.2ZM77,16.1C73.9,16.1 71.4,13.6 71.4,10.5C71.4,7.4 73.9,4.9 77,4.9C80.1,4.9 82.6,7.4 82.6,10.5C82.6,13.6 80.1,16.1 77,16.1Z" style="fill:rgb(0,174,219);fill-rule:nonzero;"/>
    <path d="M154.1,84.4L139.4,39.9L120.5,39.9L127.3,58.5L118.9,84.4L104.2,39.9L85.3,39.9L111.8,111.9L125.9,111.9L136.6,83.5L147,111.9L161.1,111.9L187.5,39.9L168.6,39.9L154.1,84.4ZM321.3,90L321.3,7.7L303.1,7.7L303.1,91.1C303.1,101.5 309.4,112 324.4,112L334.8,112L334.8,96.5L327.8,96.5C323.2,96.5 321.3,94.3 321.3,90ZM281,90L281,7.7L262.8,7.7L262.8,91.1C262.8,101.5 269.1,112 284.1,112L294.5,112L294.5,96.5L287.5,96.5C282.8,96.5 281,94.3 281,90ZM31.1,46.1C23.9,42.3 21.5,39.7 21.5,35.4C21.5,29.8 27.3,24.4 36.3,24.4L52.3,24.4L52.3,7.6L36.7,7.6C25,7.6 18.7,9.3 11.4,14.3C8.2,16.6 5.6,19.2 3.9,21.8C1.5,25.6 -0.1,30.8 -0.1,35.8C-0.1,46.8 5.4,53.5 23.2,63.7L38.8,72.5C45.4,76.2 47.6,79.1 47.6,83.3C47.6,89.4 41.8,95 33,95L0,95L0,111.8L32.8,111.8C55.1,111.8 68.2,101.3 68.2,83.3C68.2,76.3 65.6,69.6 61.3,65.3C56.6,60.7 46.5,54.3 31.1,46.1ZM220.6,36.9C201.6,36.9 188.7,50.4 188.7,74.3C188.7,104 205.3,111.9 222.6,111.9L242.9,111.9L242.9,96.5L222.7,96.5C212.4,96.5 206.7,89.6 206.7,80.2L251.7,80.2L251.7,72C251.7,51.9 241,36.9 220.6,36.9ZM206.7,67.6C206.8,64.4 207.3,62.4 208.4,59.7C210.4,55.3 214.5,52.1 220.6,52.1C226.8,52.1 230.9,55.3 232.8,59.7C233.9,62.4 234.3,64.3 234.5,67.6L206.7,67.6ZM344.3,13.1C344.3,11.3 343.3,10.5 340.9,10.5L337.6,10.5L337.6,19.6L339.2,19.6L339.2,15.8L340.2,15.8L343,19.6L344.9,19.6L341.9,15.7C343.4,15.6 344.3,14.6 344.3,13.1ZM339.2,14.8L339.2,11.8L340.7,11.8C341.5,11.8 341.9,11.9 342.2,12C342.5,12.2 342.8,12.7 342.8,13.2C342.8,14.3 342.1,14.8 340.7,14.8L339.2,14.8Z" style="fill-rule:nonzero;"/>
    <path d="M340.9,7.1C336.5,7.1 333,10.7 333,15C333,19.4 336.6,22.9 340.9,22.9C345.3,22.9 348.8,19.3 348.8,15C348.8,10.7 345.3,7.1 340.9,7.1ZM340.9,21.8C337.224,21.8 334.2,18.776 334.2,15.1C334.2,11.424 337.224,8.4 340.9,8.4C344.576,8.4 347.6,11.424 347.6,15.1C347.6,18.776 344.576,21.8 340.9,21.8Z" style="fill-rule:nonzero;"/>
</svg>
